# File created by Blade
# Date/Time:  Thu Jan 22 19:08:58 2015
# Frame Rate: 120.000 fps
#------------------------------------------------------
:FULLY-SPECIFIED
:DEGREES
2517
root -2.495311 32.999708 -0.052021 9.033132 -1.836749 2.512648
RightUpLeg -1.964022 -10.084750 -2.888020
RightLeg -0.606858 -0.000000 0.000000
RightFoot -12.201992 -4.280746 4.953188
RightToeBase 5.249413 -0.000000 -0.000000
LeftUpLeg -1.657659 5.095545 2.936602
LeftLeg 0.010576 -0.000000 -0.000000
LeftFoot -10.556147 1.335666 -11.912093
LeftToeBase 8.064179 -0.000000 -0.000000
Spine -10.778095 -1.664724 -1.834024
RightShoulder -12.091522 -21.027921 -6.096325
RightArm 31.470533 -43.707838 68.783519
RightForeArm 10.470273 -0.000000 13.845922
RightHand 9.829147 -0.000000 19.124299
RightHandThumb1 -24.326973 -0.000000 -32.862282
LeftShoulder -18.923368 8.767081 15.265379
LeftArm 9.934073 30.912819 -91.907812
LeftForeArm 9.116816 0.000000 9.049063
LeftHand -1.882610 -0.000000 -19.422042
LeftHandThumb1 -26.253704 0.000000 33.147579
Head 1.472015 4.783968 -0.304562
2518
root -2.486550 32.999480 -0.054395 8.983979 -1.859437 2.516915
RightUpLeg -1.938073 -10.119393 -2.913510
RightLeg -0.582040 -0.000000 0.000000
RightFoot -12.209114 -4.237327 4.945030
RightToeBase 5.262243 -0.000000 -0.000000
LeftUpLeg -1.611472 5.163432 2.915300
LeftLeg 0.014633 -0.000000 -0.000000
LeftFoot -10.557646 1.292074 -11.872661
LeftToeBase 8.073081 -0.000000 -0.000000
Spine -10.703683 -1.656366 -1.819227
RightShoulder -12.082536 -21.006132 -6.143417
RightArm 31.514626 -43.801138 68.682566
RightForeArm 10.619498 -0.000000 13.890448
RightHand 9.797870 -0.000000 19.094123
RightHandThumb1 -24.326973 -0.000000 -32.862282
LeftShoulder -18.933333 8.753078 15.262677
LeftArm 9.904171 30.891178 -91.907667
LeftForeArm 9.094899 -0.000000 9.109152
LeftHand -1.888042 -0.000000 -19.466290
LeftHandThumb1 -26.253704 0.000000 33.147579
Head 1.459739 4.788437 -0.331892
2519
root -2.478871 32.998678 -0.057302 8.947043 -1.883105 2.517134
RightUpLeg -1.918455 -10.140277 -2.934575
RightLeg -0.568309 -0.000000 0.000000
RightFoot -12.204738 -4.197037 4.939960
RightToeBase 5.223861 -0.000000 -0.000000
LeftUpLeg -1.575439 5.251085 2.900508
LeftLeg 0.014563 -0.000000 -0.000000
LeftFoot -10.558608 1.217151 -11.833521
LeftToeBase 8.104112 -0.000000 -0.000000
Spine -10.648059 -1.654226 -1.792004
RightShoulder -12.062159 -20.993054 -6.189252
RightArm 31.531915 -43.816373 68.639586
RightForeArm 10.655545 -0.000000 13.904548
RightHand 9.817528 -0.000000 19.125386
RightHandThumb1 -24.326973 -0.000000 -32.862282
LeftShoulder -18.955419 8.781718 15.236196
LeftArm 9.933774 30.883462 -91.872161
LeftForeArm 9.135601 0.000000 9.149406
LeftHand -1.860846 -0.000000 -19.489932
LeftHandThumb1 -26.253704 0.000000 33.147579
Head 1.450284 4.823448 -0.379303
2520
root -2.472000 32.997950 -0.059812 8.917897 -1.896397 2.519985
RightUpLeg -1.900707 -10.155441 -2.951623
RightLeg -0.562259 -0.000000 0.000000
RightFoot -12.211892 -4.184886 4.926403
RightToeBase 5.278928 -0.000000 -0.000000
LeftUpLeg -1.540563 5.317093 2.885374
LeftLeg -0.001379 -0.000000 0.000000
LeftFoot -10.543595 1.156216 -11.774596
LeftToeBase 8.124479 -0.000000 -0.000000
Spine -10.607705 -1.655798 -1.777540
RightShoulder -12.035432 -20.986244 -6.212358
RightArm 31.529313 -43.810751 68.595850
RightForeArm 10.660742 -0.000000 13.929769
RightHand 9.819504 -0.000000 19.151042
RightHandThumb1 -24.326973 -0.000000 -32.862282
LeftShoulder -18.965978 8.805827 15.225433
LeftArm 9.964847 30.906282 -91.830510
LeftForeArm 9.144121 0.000000 9.181579
LeftHand -1.853895 -0.000000 -19.559665
LeftHandThumb1 -26.253704 0.000000 33.147579
Head 1.462389 4.828602 -0.412152
2521
root -2.464361 32.996347 -0.061402 8.895792 -1.919031 2.518974
RightUpLeg -1.881725 -10.157981 -2.966778
RightLeg -0.573320 -0.000000 0.000000
RightFoot -12.214625 -4.166382 4.944920
RightToeBase 5.250919 -0.000000 -0.000000
LeftUpLeg -1.503250 5.411687 2.870416
LeftLeg -0.028438 -0.000000 0.000000
LeftFoot -10.539587 1.072051 -11.778880
LeftToeBase 8.150704 -0.000000 -0.000000
Spine -10.581698 -1.652999 -1.748052
RightShoulder -12.029648 -21.008510 -6.227960
RightArm 31.575301 -43.779772 68.534576
RightForeArm 10.612773 -0.000000 13.924849
RightHand 9.817754 -0.000000 19.189272
RightHandThumb1 -24.326973 -0.000000 -32.862282
LeftShoulder -18.985601 8.811066 15.210163
LeftArm 9.971908 30.952289 -91.791910
LeftForeArm 9.194513 0.000000 9.195652
LeftHand -1.801427 -0.000000 -19.598817
LeftHandThumb1 -26.253704 0.000000 33.147579
Head 1.478160 4.861038 -0.460820
2522
root -2.456603 32.994272 -0.062921 8.876415 -1.935867 2.518258
RightUpLeg -1.865335 -10.152424 -2.983266
RightLeg -0.580150 -0.000000 0.000000
RightFoot -12.212782 -4.160513 4.944363
RightToeBase 5.237196 -0.000000 -0.000000
LeftUpLeg -1.470020 5.535670 2.847434
LeftLeg -0.067173 -0.000000 0.000000
LeftFoot -10.543257 0.992362 -11.788587
LeftToeBase 8.260390 -0.000000 -0.000000
Spine -10.560203 -1.649099 -1.714532
RightShoulder -12.003534 -21.001290 -6.260447
RightArm 31.532246 -43.721590 68.555371
RightForeArm 10.570862 -0.000000 13.920398
RightHand 9.854553 -0.000000 19.235960
RightHandThumb1 -24.326973 -0.000000 -32.862282
LeftShoulder -18.992816 8.809853 15.195740
LeftArm 9.977135 31.011337 -91.751377
LeftForeArm 9.226294 -0.000000 9.206800
LeftHand -1.735108 -0.000000 -19.636731
LeftHandThumb1 -26.253704 0.000000 33.147579
Head 1.491420 4.890538 -0.526453
2523
root -2.450822 32.992310 -0.062358 8.856569 -1.939170 2.519064
RightUpLeg -1.830988 -10.118621 -2.997247
RightLeg -0.607540 -0.000000 0.000000
RightFoot -12.221467 -4.203191 4.947408
RightToeBase 5.255863 -0.000000 -0.000000
LeftUpLeg -1.430805 5.560397 2.851203
LeftLeg -0.085523 -0.000000 0.000000
LeftFoot -10.534405 0.907065 -11.711605
LeftToeBase 8.188889 -0.000000 -0.000000
Spine -10.548433 -1.638465 -1.696308
RightShoulder -12.024333 -21.035414 -6.242972
RightArm 31.564000 -43.692201 68.487850
RightForeArm 10.573612 -0.000000 13.927000
RightHand 9.845516 -0.000000 19.262610
RightHandThumb1 -24.326973 -0.000000 -32.862282
LeftShoulder -18.988050 8.826052 15.187435
LeftArm 10.009721 31.114545 -91.689943
LeftForeArm 9.229828 -0.000000 9.229201
LeftHand -1.740002 0.000000 -19.648292
LeftHandThumb1 -26.253704 0.000000 33.147579
Head 1.523531 4.899225 -0.566184
2524
root -2.443458 32.990436 -0.062068 8.846146 -1.939163 2.517572
RightUpLeg -1.804226 -10.085796 -3.012410
RightLeg -0.637566 -0.000000 0.000000
RightFoot -12.217211 -4.235060 4.957359
RightToeBase 5.252725 -0.000000 -0.000000
LeftUpLeg -1.407673 5.656479 2.832604
LeftLeg -0.122057 -0.000000 0.000000
LeftFoot -10.528528 0.833384 -11.750728
LeftToeBase 8.256465 -0.000000 -0.000000
Spine -10.550619 -1.645880 -1.657835
RightShoulder -12.016200 -21.037038 -6.247319
RightArm 31.509438 -43.642762 68.487575
RightForeArm 10.571033 -0.000000 13.948069
RightHand 9.858444 -0.000000 19.254909
RightHandThumb1 -24.326973 -0.000000 -32.862282
LeftShoulder -18.991252 8.833830 15.168197
LeftArm 10.012234 31.208958 -91.638950
LeftForeArm 9.282831 -0.000000 9.272228
LeftHand -1.762847 -0.000000 -19.663130
LeftHandThumb1 -26.253704 0.000000 33.147579
Head 1.560324 4.931278 -0.628189
2525
root -2.438316 32.988673 -0.062138 8.850338 -1.926886 2.518215
RightUpLeg -1.785013 -10.063741 -3.020433
RightLeg -0.680698 -0.000000 0.000000
RightFoot -12.212007 -4.276429 4.979739
RightToeBase 5.256073 -0.000000 -0.000000
LeftUpLeg -1.407748 5.667489 2.837933
LeftLeg -0.119183 -0.000000 0.000000
LeftFoot -10.527377 0.739940 -11.673347
LeftToeBase 8.201060 -0.000000 -0.000000
Spine -10.572630 -1.654737 -1.636066
RightShoulder -12.031853 -21.082759 -6.222243
RightArm 31.505183 -43.586617 68.456957
RightForeArm 10.587421 -0.000000 13.962927
RightHand 9.878787 0.000000 19.240740
RightHandThumb1 -24.326973 -0.000000 -32.862282
LeftShoulder -18.972976 8.810980 15.180738
LeftArm 9.976305 31.281798 -91.614837
LeftForeArm 9.381016 -0.000000 9.303516
LeftHand -1.739107 -0.000000 -19.712086
LeftHandThumb1 -26.253704 0.000000 33.147579
Head 1.600425 4.960959 -0.664612
